<?xml version="1.0" encoding="iso-8859-1"?>
<!-- Generator: Adobe Illustrator 19.0.0, SVG Export Plug-In . SVG Version: 6.00 Build 0)  -->
<svg version="1.1" id="Capa_1" xmlns="http://www.w3.org/2000/svg" xmlns:xlink="http://www.w3.org/1999/xlink" x="0px" y="0px"
	 viewBox="0 0 512.002 512.002" style="enable-background:new 0 0 512.002 512.002;" xml:space="preserve">
<g>
	<g>
		<path style="fill:#FFD164;" d="M345.061,91.61l118.201-81.174c11.775-8.191,27.556,2.018,24.913,16.115l-34.789,186.618
			C435.196,159.484,395.769,115.616,345.061,91.61z"/>
		<path style="fill:#FFC350;" d="M382.274,66.054c6.438,3.807,12.664,7.926,18.694,12.301c5.527,4.009,13.045,3.899,18.673,0.034
			l17.631-12.108c5.192-3.612,12.152,0.89,10.987,7.107l-6.156,33.018c-0.894,4.794,0.508,9.677,3.661,13.397
			c7.244,8.549,13.94,17.576,19.982,27.069l-12.359,66.297c-18.19-53.685-57.618-97.553-108.325-121.56L382.274,66.054z"/>
		<path style="fill:#FFD164;" d="M166.941,91.61L48.74,10.435c-11.775-8.191-27.556,2.018-24.913,16.115l34.789,186.618
			C76.806,159.484,116.233,115.616,166.941,91.61z"/>
		<path style="fill:#FFC350;" d="M129.728,66.054c-6.438,3.807-12.664,7.926-18.694,12.301c-5.527,4.009-13.045,3.899-18.673,0.034
			L74.73,66.281c-5.192-3.612-12.152,0.89-10.987,7.107l6.156,33.018c0.894,4.794-0.508,9.677-3.661,13.397
			c-7.244,8.549-13.94,17.576-19.982,27.069l12.359,66.297c18.19-53.685,57.618-97.553,108.325-121.56L129.728,66.054z"/>
		<circle style="fill:#FFE17D;" cx="256.001" cy="280.063" r="224.452"/>
		<path style="fill:#FFD164;" d="M288.583,471.933c-123.961,0-224.452-100.491-224.452-224.452
			c0-53.681,18.869-102.942,50.305-141.565C63.87,147.072,31.549,209.784,31.549,280.063c0,123.961,100.49,224.452,224.452,224.452
			c70.28,0,132.992-32.321,174.148-82.888C391.525,453.063,342.265,471.933,288.583,471.933z"/>
		<path style="fill:#9C6846;" d="M256.001,349.998c-47.878,0-93.58-4.864-135.509-13.657c-5.431-1.139-10.112,3.825-8.436,9
			c19.337,59.73,76.412,103.062,143.945,103.062S380.61,405.071,399.946,345.34c1.675-5.174-3.005-10.138-8.436-9
			C349.581,345.134,303.879,349.998,256.001,349.998z"/>
		<path style="fill:#7D5046;" d="M391.799,365.15c3.165-6.372,5.932-12.967,8.147-19.81c1.675-5.174-3.005-10.139-8.436-9
			c-41.928,8.793-87.63,13.657-135.508,13.657s-93.58-4.864-135.508-13.657c-5.431-1.139-10.112,3.825-8.436,9
			c2.215,6.842,4.982,13.438,8.147,19.81c41.355,8.724,87.318,13.612,135.798,13.612S350.444,373.874,391.799,365.15z"/>
		<path style="fill:#9C6846;" d="M278.967,272.047h-45.932c-6.796,0-10.509,7.927-6.158,13.148l22.966,27.559
			c3.205,3.846,9.111,3.846,12.316,0l22.966-27.559C289.476,279.974,285.763,272.047,278.967,272.047z"/>
		<path style="fill:#FFFFFF;" d="M256.001,349.998c-30.411,0-59.932-1.977-88.177-5.662v39.623c0,7.142,8.635,10.718,13.684,5.669
			l10.518-10.519c1.659-1.659,3.944-2.491,6.282-2.294c18.792,1.59,38.046,2.448,57.693,2.448c19.646,0,38.893-0.867,57.683-2.458
			c2.338-0.198,4.624,0.636,6.282,2.294l10.528,10.528c5.05,5.05,13.684,1.473,13.684-5.669v-39.623
			C315.933,348.02,286.412,349.998,256.001,349.998z"/>
		<path style="fill:#7D5046;" d="M256.001,292.088c-12.042,0-22.946-4.839-30.903-12.665c-0.171,1.963,0.316,4.017,1.778,5.773
			l22.966,27.559c3.205,3.846,9.112,3.846,12.317,0l22.966-27.559c1.463-1.755,1.949-3.81,1.778-5.773
			C278.947,287.248,268.043,292.088,256.001,292.088z"/>
	</g>
	<g>
		<path d="M107.925,333.592c-3.481,3.872-4.604,9.133-3.004,14.075c10.101,31.202,29.68,58.063,56.619,77.682
			c27.461,19.999,60.125,30.569,94.461,30.569s67-10.571,94.461-30.569c26.939-19.619,46.518-46.48,56.62-77.683
			c1.599-4.941,0.476-10.203-3.005-14.075c-3.515-3.91-8.919-5.664-14.106-4.575c-42.708,8.956-87.782,13.497-133.97,13.497
			s-91.262-4.541-133.969-13.497C116.844,327.929,111.439,329.682,107.925,333.592z M392.565,343.801
			c-9.072,27.464-27.135,52.093-50.932,69.423c-24.879,18.118-54.49,27.694-85.631,27.694s-60.752-9.577-85.631-27.694
			c-23.797-17.331-41.861-41.961-50.933-69.425c13.416,2.802,27.059,5.176,40.887,7.123v33.053c0,6.298,3.76,11.925,9.579,14.335
			c5.819,2.412,12.456,1.09,16.909-3.363l10.519-10.519c0.095-0.095,0.206-0.134,0.346-0.124
			c19.412,1.643,39.036,2.475,58.326,2.475c19.222,0,38.843-0.835,58.317-2.484c0.136-0.014,0.25,0.029,0.345,0.124l10.527,10.527
			c2.976,2.976,6.926,4.552,10.956,4.552c2.001,0,4.022-0.389,5.953-1.189c5.819-2.41,9.579-8.037,9.579-14.335v-33.053
			C365.504,348.975,379.145,346.602,392.565,343.801z M336.678,352.85v31.125c0,0.177,0,0.345-0.319,0.477
			c-0.319,0.131-0.437,0.013-0.562-0.112l-10.527-10.527c-3.222-3.222-7.68-4.845-12.218-4.464
			c-19.055,1.612-38.25,2.43-57.051,2.43c-18.87,0-38.068-0.815-57.061-2.421c-4.545-0.387-8.996,1.243-12.217,4.464l-10.519,10.519
			c-0.125,0.125-0.244,0.243-0.562,0.112c-0.319-0.132-0.319-0.3-0.319-0.477V352.85c26.355,3.094,53.327,4.664,80.677,4.664
			C283.349,357.514,310.319,355.944,336.678,352.85z"/>
		<path d="M256.001,323.155c4.619,0,8.963-2.035,11.92-5.583l22.966-27.559c3.896-4.675,4.713-11.003,2.131-16.514
			c-2.581-5.511-7.965-8.935-14.051-8.935h-45.932c-6.086,0-11.47,3.424-14.051,8.935c-2.582,5.511-1.765,11.839,2.131,16.514
			l22.966,27.559C247.038,321.12,251.382,323.155,256.001,323.155z M232.568,279.861c0.139-0.297,0.313-0.297,0.467-0.297h45.932
			c0.154,0,0.328,0,0.467,0.297c0.139,0.297,0.028,0.431-0.071,0.549l-22.966,27.559c-0.042,0.051-0.155,0.186-0.396,0.186
			s-0.354-0.135-0.396-0.186l-22.966-27.559C232.54,280.292,232.429,280.158,232.568,279.861z"/>
		<path d="M317.96,236.682c6.759-8.409,16.315-13.231,26.219-13.231s19.46,4.822,26.218,13.231c1.481,1.843,3.656,2.802,5.851,2.802
			c1.648,0,3.309-0.542,4.694-1.655c3.229-2.595,3.742-7.316,1.147-10.544c-9.62-11.969-23.438-18.833-37.91-18.833
			s-28.29,6.865-37.911,18.833c-2.595,3.229-2.082,7.949,1.147,10.544C310.644,240.423,315.364,239.91,317.96,236.682z"/>
		<path d="M204.558,237.828c3.229-2.595,3.742-7.316,1.147-10.544c-9.621-11.969-23.438-18.833-37.91-18.833
			s-28.29,6.865-37.91,18.833c-2.595,3.229-2.082,7.949,1.147,10.544c3.228,2.594,7.95,2.081,10.544-1.147
			c6.759-8.409,16.315-13.231,26.219-13.231s19.46,4.822,26.219,13.231c1.482,1.843,3.656,2.802,5.851,2.802
			C201.513,239.483,203.173,238.942,204.558,237.828z"/>
		<path d="M505.671,320.768l-20.767-3.279c1.579-9.749,2.56-19.644,2.89-29.644c0.091-2.766,0.117-5.526,0.111-8.282h16.596
			c4.142,0,7.5-3.358,7.5-7.5s-3.358-7.5-7.5-7.5h-17.106c-1.884-28.357-8.909-55.9-20.656-81.407L495.84,27.949
			c1.795-9.572-2.17-18.805-10.348-24.095c-8.177-5.289-18.224-5.121-26.22,0.441l-98.776,68.713
			c-34.412-17.399-72.879-26.023-112.261-24.721c-34.023,1.121-66.874,9.616-96.604,24.604L53.023,4.295
			c-7.997-5.562-18.043-5.73-26.22-0.441C18.625,9.144,14.66,18.377,16.455,27.95l29.001,154.674
			c-11.841,25.576-18.953,53.287-20.848,81.94H7.501c-4.142,0-7.5,3.358-7.5,7.5s3.358,7.5,7.5,7.5h16.594
			c-0.027,12.795,0.99,25.472,3.013,37.924l-20.778,3.281c-4.091,0.646-6.884,4.486-6.238,8.578
			c0.583,3.695,3.772,6.331,7.399,6.331c0.389,0,0.783-0.03,1.179-0.093l21.317-3.366c8.417,36.61,25.673,70.816,50.749,99.705
			c1.483,1.708,3.569,2.584,5.667,2.583c1.742,0,3.494-0.604,4.913-1.836c3.128-2.715,3.462-7.452,0.748-10.581
			c-23.214-26.744-39.255-58.366-47.212-92.219l116.125-18.336c4.091-0.646,6.884-4.486,6.238-8.578
			c-0.646-4.091-4.483-6.885-8.578-6.238L41.927,315.148c-1.903-11.683-2.86-23.578-2.832-35.584h144.761c4.142,0,7.5-3.358,7.5-7.5
			s-3.358-7.5-7.5-7.5H39.642c3.683-52.085,25.842-100.784,62.95-137.892c39.061-39.061,90.96-61.574,146.137-63.393
			c54.897-1.805,107.923,16.964,149.282,52.864c3.128,2.714,7.864,2.38,10.581-0.748c2.715-3.128,2.38-7.865-0.748-10.581
			c-10.27-8.915-21.22-16.829-32.703-23.722l92.697-64.484c4.36-3.033,8.378-0.889,9.506-0.16c1.128,0.729,4.731,3.515,3.752,8.736
			l-25.611,136.59c-7.009-11.788-15.09-23.02-24.221-33.539c-2.716-3.127-7.452-3.463-10.581-0.748
			c-3.128,2.715-3.462,7.452-0.748,10.581c30.903,35.602,49.102,79.845,52.418,126.495h-144.21c-4.142,0-7.5,3.358-7.5,7.5
			s3.358,7.5,7.5,7.5h144.759c0.006,2.592-0.018,5.187-0.104,7.788c-0.309,9.378-1.23,18.657-2.715,27.798l-116.722-18.43
			c-4.09-0.641-7.932,2.147-8.578,6.238c-0.646,4.092,2.147,7.932,6.238,8.578l116.146,18.339
			c-9.135,38.966-28.935,74.787-57.761,103.613c-39.061,39.061-90.959,61.574-146.136,63.393
			c-54.922,1.805-107.925-16.964-149.283-52.864c-3.129-2.715-7.865-2.381-10.581,0.748c-2.715,3.128-2.38,7.865,0.748,10.581
			C146.433,492.04,200.086,512,256.01,512c2.578,0,5.17-0.042,7.756-0.128c58.996-1.944,114.486-26.015,156.249-67.778
			c31.089-31.089,52.364-69.787,62.015-111.872l21.3,3.363c0.396,0.063,0.79,0.093,1.179,0.093c3.626,0,6.815-2.636,7.399-6.331
			C512.555,325.255,509.762,321.414,505.671,320.768z M91.986,116.065c-13.721,13.721-25.519,28.932-35.263,45.254L31.198,25.185
			c-0.979-5.221,2.624-8.007,3.751-8.736c1.128-0.729,5.146-2.873,9.507,0.16l92.512,64.356
			C120.749,90.678,105.631,102.42,91.986,116.065z"/>
	</g>
</g>
<g>
</g>
<g>
</g>
<g>
</g>
<g>
</g>
<g>
</g>
<g>
</g>
<g>
</g>
<g>
</g>
<g>
</g>
<g>
</g>
<g>
</g>
<g>
</g>
<g>
</g>
<g>
</g>
<g>
</g>
</svg>
